<?xml version="1.0" encoding="utf-8"?>
<!-- Generator: Adobe Illustrator 16.0.0, SVG Export Plug-In . SVG Version: 6.00 Build 0)  -->
<!DOCTYPE svg PUBLIC "-//W3C//DTD SVG 1.1//EN" "http://www.w3.org/Graphics/SVG/1.1/DTD/svg11.dtd">
<svg version="1.1" id="Layer_1" xmlns="http://www.w3.org/2000/svg" xmlns:xlink="http://www.w3.org/1999/xlink" x="0px" y="0px"
	 width="416.834px" height="403.603px" viewBox="0 0 416.834 403.603" enable-background="new 0 0 416.834 403.603"
	 xml:space="preserve">
<linearGradient id="SVGID_1_" gradientUnits="userSpaceOnUse" x1="208.9199" y1="230.1553" x2="258.6581" y2="392.666">
	<stop  offset="0.2199" style="stop-color:#B18B75"/>
	<stop  offset="0.4422" style="stop-color:#96664D"/>
	<stop  offset="0.5" style="stop-color:#94644A"/>
</linearGradient>
<path fill="url(#SVGID_1_)" stroke="#603913" stroke-miterlimit="10" d="M318.948,227.91
	c13.104,57.057-22.527,113.934-79.584,127.037s-113.933-22.527-127.037-79.584l66.256,2.567l79.938-36.143L318.948,227.91z"/>
<g>
	<g>
		<path d="M1284.314-1116.696c0.919,0.171,1.855,0.27,2.783,0.168c0.465-0.037,0.927-0.094,1.379-0.211
			c0.46-0.081,0.903-0.225,1.346-0.37c0.887-0.286,1.734-0.679,2.563-1.101c0.824-0.436,1.618-0.922,2.396-1.435
			c1.546-1.04,3.003-2.209,4.419-3.422c1.41-1.22,2.818-2.456,4.166-3.739c1.345-1.287,2.65-2.618,3.877-4.016
			c0.615-0.697,1.201-1.418,1.78-2.145c0.562-0.74,1.117-1.484,1.632-2.255c0.514-0.771,1.018-1.552,1.46-2.363
			c0.464-0.8,0.87-1.633,1.243-2.476c0.379-0.842,0.692-1.709,0.973-2.585c0.12-0.444,0.255-0.884,0.363-1.329l0.271-1.35
			l0.726,0.148c-0.601,2.881-1.087,5.793-1.294,8.742c-0.286,2.943-0.385,5.896-0.479,8.865c-0.103,2.967-0.119,5.92-0.176,8.891
			c-0.03,2.967-0.119,5.939-0.217,8.911c-0.175,2.97-0.287,5.947-0.67,8.907c-0.255,2.972-0.844,5.908-1.418,8.836l-1.133,4.338
			c-0.375,1.441-0.858,2.891-1.643,4.249c-0.404,0.665-0.9,1.345-1.69,1.78c-0.806,0.473-1.867,0.287-2.563-0.131l-0.522-0.331
			l-0.456-0.388c-0.082-0.078-0.133-0.102-0.243-0.223l-0.185-0.209l-0.369-0.416c-0.242-0.293-0.457-0.664-0.68-0.996
			c-0.186-0.348-0.346-0.701-0.516-1.054c-1.146-2.915-1.094-6.04-0.732-9.011c0.195-1.493,0.498-2.969,0.912-4.42
			c0.104-0.369,0.217-0.707,0.342-1.096l0.397-1.039l0.793-2.08c1.247-2.739,2.585-5.419,4.235-7.91
			c1.576-2.537,3.4-4.902,5.279-7.215c1.941-2.258,3.94-4.471,6.107-6.514c2.119-2.092,4.413-3.995,6.734-5.852
			c2.357-1.811,4.768-3.557,7.287-5.132c2.487-1.626,5.111-3.029,7.75-4.384l0.004,0.018l-0.899,0.007l0.899-0.025l0.039-0.001
			l-0.035,0.019c-2.61,1.409-5.198,2.864-7.646,4.538c-2.48,1.623-4.846,3.414-7.155,5.266c-2.272,1.898-4.51,3.84-6.599,5.936
			c-2.131,2.055-4.089,4.275-5.988,6.537c-1.836,2.313-3.615,4.678-5.143,7.202c-1.605,2.479-2.883,5.147-4.078,7.812l-0.785,2.082
			l-0.393,1.041c-0.098,0.318-0.221,0.686-0.316,1.029c-0.395,1.405-0.684,2.845-0.867,4.294c-0.346,2.878-0.355,5.903,0.705,8.55
			c0.154,0.313,0.303,0.637,0.465,0.942c0.197,0.278,0.344,0.562,0.572,0.841l0.371,0.414l0.186,0.207
			c0.012,0.02,0.116,0.102,0.17,0.148l0.393,0.334l0.418,0.262c0.567,0.311,1.162,0.41,1.676,0.112
			c0.521-0.284,0.958-0.835,1.311-1.431c0.697-1.216,1.17-2.612,1.531-4.037l1.1-4.279c0.327-1.436,0.525-2.9,0.8-4.348
			c0.299-1.445,0.437-2.916,0.604-4.383c0.391-2.928,0.514-5.888,0.699-8.839c0.108-2.959,0.209-5.919,0.25-8.886
			c0.068-2.963,0.097-5.945,0.21-8.909c0.105-2.961,0.217-5.944,0.517-8.908c0.243-2.972,0.77-5.921,1.414-8.839l0.725,0.148
			l-0.298,1.396c-0.118,0.461-0.263,0.914-0.393,1.371c-0.299,0.9-0.632,1.789-1.03,2.648c-0.393,0.861-0.819,1.707-1.302,2.518
			c-0.462,0.824-0.983,1.612-1.515,2.39c-0.532,0.778-1.104,1.526-1.683,2.269c-0.595,0.729-1.196,1.451-1.826,2.148
			c-0.63,0.696-1.271,1.385-1.937,2.047c-0.655,0.672-1.338,1.314-2.032,1.947c-1.388,1.266-2.815,2.47-4.258,3.666
			c-1.448,1.188-2.937,2.334-4.516,3.35c-0.794,0.5-1.604,0.974-2.443,1.395c-0.845,0.408-1.707,0.787-2.606,1.057
			c-0.449,0.137-0.898,0.272-1.363,0.345c-0.457,0.108-0.924,0.156-1.393,0.185
			C1286.164-1116.388,1285.229-1116.507,1284.314-1116.696z"/>
	</g>
	<circle fill="none" stroke="#000000" stroke-miterlimit="10" cx="1311.98" cy="-1118.362" r="56"/>
</g>
<g>
	<g>
		<path d="M601.28-28.849c-1.062-0.324-2.125-0.656-3.145-1.101c-1.02-0.438-2.027-0.921-2.965-1.521
			c-1.88-1.18-3.556-2.742-4.686-4.674c-1.142-1.922-1.706-4.151-1.8-6.375c-0.101-2.232,0.224-4.463,0.764-6.623
			c1.101-4.327,3.025-8.391,5.196-12.269c1.094-1.938,2.267-3.832,3.49-5.69c1.217-1.861,2.516-3.676,3.756-5.508l0.14-0.206
			l0.159,0.19c3.253,3.905,6.461,7.863,9.366,12.051c2.891,4.187,5.514,8.609,7.32,13.403c0.893,2.396,1.565,4.89,1.843,7.446
			c0.276,2.554,0.124,5.176-0.586,7.662c-0.698,2.49-1.974,4.801-3.612,6.786c-1.639,1.995-3.628,3.661-5.743,5.106l-0.027,0.018
			l-0.028,0.012c-4.04,1.556-8.392,1.81-12.631,1.615c-4.249-0.245-8.493-1.033-12.471-2.617c-1.982-0.798-3.898-1.802-5.615-3.109
			c-1.721-1.331-3.115-2.945-4.466-4.604c-2.656-3.347-4.725-7.14-6.2-11.141c-2.948-8.013-3.584-16.827-1.96-25.202
			c0.82-4.186,2.225-8.27,4.272-12.027c2.043-3.754,4.746-7.174,8.048-9.918c3.292-2.75,7.18-4.783,11.307-5.947
			c4.128-1.187,8.466-1.512,12.725-1.197c4.269,0.294,8.462,1.236,12.52,2.527c1.006,0.35,2.025,0.663,3.014,1.059l1.493,0.566
			l1.467,0.65c1.95,0.93,3.792,2.096,5.46,3.452c3.323,2.751,5.963,6.265,7.867,10.097c1.934,3.83,3.182,7.965,3.937,12.163
			c1.458,8.413,0.955,17.138-1.409,25.333c-2.326,8.289-7.153,15.537-12.629,21.989c-5.467,6.491-11.571,12.388-16.678,19.098
			c-1.271,1.679-2.469,3.409-3.589,5.188c-1.089,1.796-2.109,3.635-2.984,5.544c-1.729,3.821-2.976,7.874-3.522,12.039
			c-0.582,4.155-0.625,8.402-0.321,12.591c0.168,2.095,0.453,4.183,0.946,6.217c0.497,2.026,1.191,4.029,2.326,5.757
			c1.108,1.724,2.814,3.102,4.843,3.414c1.004,0.171,2.035,0.135,3.037-0.086c0.984-0.23,1.909-0.7,2.687-1.354
			c1.564-1.325,2.543-3.245,3.206-5.208c0.665-1.979,1.036-4.058,1.263-6.146c0.75-8.35,0.002-17.032-3.659-24.682
			c-1.713-3.849-3.855-7.521-6.485-10.814c-1.315-1.644-2.794-3.164-4.457-4.451c-1.675-1.281-3.51-2.329-5.405-3.257
			c-1.897-0.923-3.859-1.717-5.854-2.412c-1.985-0.738-4.045-1.213-6.152-1.417c-2.1-0.234-4.215-0.341-6.316-0.604
			c-2.092-0.271-4.2-0.717-6.071-1.727c1.879,0.995,3.986,1.423,6.078,1.678c2.1,0.245,4.214,0.335,6.32,0.554
			c2.109,0.187,4.202,0.651,6.19,1.375c2.005,0.681,3.978,1.461,5.892,2.374c1.908,0.915,3.773,1.961,5.469,3.238
			c1.693,1.29,3.198,2.813,4.537,4.46c2.677,3.299,4.86,6.978,6.616,10.84c1.747,3.855,3.146,7.939,3.616,12.18
			c0.511,4.216,0.637,8.484,0.211,12.722c-0.224,2.115-0.594,4.228-1.271,6.264c-0.678,2.018-1.678,4.028-3.362,5.468
			c-0.839,0.709-1.847,1.227-2.923,1.48c-1.06,0.238-2.185,0.284-3.265,0.101c-2.21-0.33-4.083-1.849-5.245-3.656
			c-1.198-1.816-1.911-3.874-2.426-5.942c-0.509-2.077-0.802-4.193-0.979-6.313c-0.319-4.241-0.288-8.507,0.292-12.733
			c0.543-4.229,1.8-8.355,3.545-12.239c0.882-1.941,1.912-3.809,3.011-5.632c1.129-1.804,2.336-3.557,3.614-5.254
			c5.137-6.784,11.236-12.706,16.649-19.171c2.714-3.225,5.246-6.604,7.392-10.215c1.082-1.807,2.009-3.66,2.891-5.597
			c0.822-1.906,1.532-3.896,2.124-5.903c2.304-8.063,2.776-16.669,1.322-24.924c-0.752-4.119-1.987-8.164-3.88-11.889
			c-1.861-3.734-4.442-7.106-7.627-9.771c-1.611-1.315-3.363-2.43-5.227-3.327l-1.432-0.64l-1.472-0.563
			c-0.975-0.393-1.979-0.703-2.969-1.051c-3.994-1.281-8.114-2.217-12.292-2.516c-4.169-0.316-8.398-0.009-12.414,1.135
			c-4.016,1.123-7.792,3.086-11,5.752c-6.468,5.341-10.477,13.242-12.085,21.435c-1.617,8.224-1.013,16.909,1.867,24.792
			c1.44,3.938,3.464,7.668,6.061,10.957c1.308,1.617,2.704,3.232,4.333,4.495c1.648,1.263,3.51,2.247,5.446,3.03
			c3.886,1.561,8.07,2.35,12.254,2.601c4.171,0.206,8.475-0.049,12.365-1.54l-0.055,0.029c2.08-1.412,4.029-3.039,5.627-4.975
			c1.599-1.927,2.837-4.158,3.519-6.566c0.693-2.404,0.851-4.949,0.587-7.445c-0.265-2.5-0.918-4.953-1.793-7.318
			c-1.767-4.738-4.369-9.131-7.221-13.314c-2.86-4.188-6.03-8.161-9.252-12.088l0.299-0.016c-1.265,1.838-2.567,3.63-3.795,5.48
			c-1.232,1.846-2.415,3.725-3.519,5.648c-2.19,3.85-4.134,7.883-5.258,12.178c-0.552,2.143-0.889,4.355-0.805,6.569
			c0.08,2.208,0.622,4.419,1.741,6.335c1.107,1.925,2.763,3.492,4.63,4.682c0.931,0.605,1.933,1.094,2.949,1.538
			C599.16-29.521,600.22-29.18,601.28-28.849z"/>
	</g>
	<circle fill="none" stroke="#000000" stroke-miterlimit="10" cx="609.524" cy="-20.59" r="125"/>
	<g>
		<path d="M602.046-72.422c3.303,3.925,6.574,7.886,9.539,12.083c2.956,4.191,5.673,8.602,7.581,13.4
			c0.942,2.397,1.674,4.898,1.987,7.475c0.32,2.57,0.183,5.225-0.556,7.731c-0.724,2.511-2.075,4.821-3.805,6.767
			c-1.726,1.957-3.812,3.552-6.009,4.918l-0.02,0.012l-0.029,0.012c-1.329,0.562-2.713,0.981-4.123,1.238
			c-1.408,0.267-2.832,0.426-4.258,0.508c-2.853,0.177-5.717-0.002-8.531-0.467c-1.408-0.229-2.804-0.525-4.182-0.898
			c-1.375-0.379-2.72-0.869-4.031-1.432c-1.306-0.57-2.586-1.213-3.767-2.015c-0.592-0.396-1.162-0.823-1.709-1.276
			c-0.548-0.452-1.05-0.956-1.529-1.475c0.534,0.464,1.089,0.896,1.661,1.303c0.576,0.4,1.17,0.773,1.782,1.111
			c1.229,0.668,2.495,1.263,3.805,1.747c0.654,0.243,1.317,0.462,1.984,0.666c0.669,0.2,1.346,0.368,2.02,0.546
			c1.353,0.342,2.724,0.609,4.105,0.81c1.381,0.199,2.772,0.332,4.165,0.397c1.392,0.079,2.788,0.107,4.18,0.05
			c1.392-0.056,2.781-0.188,4.15-0.424c1.364-0.248,2.725-0.538,4.019-1.022l-0.049,0.023c2.163-1.322,4.21-2.863,5.897-4.749
			c1.691-1.874,3.009-4.091,3.727-6.513c0.731-2.416,0.889-4.99,0.594-7.509c-0.287-2.523-0.967-4.999-1.873-7.382
			c-1.829-4.773-4.479-9.203-7.378-13.422C608.482-64.425,605.282-68.442,602.046-72.422z"/>
	</g>
</g>
<g>
	<path d="M1198.695-1256.014c0,0-0.012,0.146-0.031,0.418c-0.046,0.273,0.016,0.675-0.166,1.183
		c-0.076,0.251-0.137,0.544-0.25,0.841c-0.145,0.281-0.271,0.602-0.429,0.941c-0.184,0.32-0.43,0.633-0.669,0.983
		c-0.283,0.308-0.596,0.632-0.932,0.977c-0.742,0.575-1.667,1.177-2.807,1.397l-0.429,0.094l-0.22,0.046l-0.11,0.023l-0.12-0.003
		l-0.025,0.001l-0.049,0.001c-0.26,0.009-0.521,0.018-0.787,0.027c-0.141-0.002-0.252,0.024-0.418-0.001l-0.509-0.085
		c-0.336-0.069-0.718-0.12-1.036-0.234c-1.289-0.402-2.5-1.243-3.406-2.413c-0.199-0.307-0.403-0.62-0.592-0.944
		c-0.205-0.316-0.279-0.692-0.412-1.044c-0.121-0.358-0.246-0.717-0.272-1.096l-0.069-0.564l-0.032-0.283l-0.015-0.142l-0.007-0.071
		l-0.002-0.036l-0.001-0.018c-0.009,0.155,0.01-0.231,0.01-0.196c0.104-0.617,0.061-1.04,0.371-1.954
		c0.133-0.389,0.24-0.836,0.441-1.132l0.592-0.941c0.906-1.168,2.123-1.999,3.405-2.406c1.287-0.35,2.587-0.452,3.689-0.131
		c0.46,0.071,1.054,0.338,1.552,0.562c0.502,0.228,0.867,0.577,1.262,0.838c0.332,0.348,0.648,0.667,0.929,0.976
		c0.239,0.351,0.485,0.664,0.669,0.984c0.156,0.339,0.281,0.66,0.428,0.94c0.112,0.294,0.172,0.582,0.248,0.832
		c0.182,0.496,0.123,0.922,0.168,1.195c0.021,0.277,0.031,0.425,0.031,0.425V-1256.014z M1198.495-1256.024
		c0,0-0.015-0.143-0.044-0.411c-0.054-0.262-0.008-0.672-0.199-1.143c-0.08-0.237-0.146-0.509-0.261-0.787
		c-0.146-0.265-0.302-0.552-0.47-0.857c-0.196-0.287-0.453-0.559-0.696-0.864c-0.278-0.271-0.611-0.518-0.94-0.79
		c-0.75-0.426-1.568-0.838-2.577-0.905c-0.977-0.165-2.019,0.074-3.001,0.454c-0.971,0.45-1.817,1.191-2.462,2.102
		c-0.598,0.964-0.9,2.016-0.947,3.213c0.044,1.09,0.342,2.235,0.943,3.174c0.643,0.911,1.487,1.655,2.46,2.103
		c0.236,0.119,0.494,0.167,0.737,0.255c0.243,0.085,0.486,0.166,0.757,0.173c0.262,0.028,0.521,0.055,0.777,0.083
		c0.224,0.011,0.489-0.039,0.727-0.054c0.986-0.061,1.843-0.479,2.58-0.901c0.332-0.269,0.663-0.517,0.943-0.787
		c0.244-0.305,0.5-0.577,0.697-0.862c0.168-0.306,0.325-0.592,0.471-0.857c0.115-0.276,0.179-0.545,0.26-0.779
		c0.191-0.46,0.148-0.89,0.201-1.153c0.029-0.272,0.045-0.417,0.045-0.417L1198.495-1256.024z"/>
</g>
<g>
	<g>
		<g>
			<path d="M377.358,105.461c0,0-0.172-0.006-0.3-0.039c-0.034,0.003-0.076-0.102-0.079-0.179c0-0.047-0.009-0.081,0.01-0.143
				c0.026-0.074,0.099-0.155,0.182-0.207c0.099-0.059,0.143-0.064,0.187-0.076c0.049-0.012,0.104-0.016,0.155-0.007
				c0.092,0.014,0.1,0.019,0.155,0.032c0.083,0.047,0.104,0.074,0.133,0.139c0.017,0.054,0.02,0.12,0.008,0.19
				c-0.02,0.132-0.09,0.289-0.09,0.289s-0.13,0.113-0.24,0.181c-0.058,0.039-0.108,0.069-0.149,0.084
				c-0.032,0.031-0.071,0.015-0.059,0.035c0.02,0.001-0.004-0.015,0.052-0.005c0.033,0.007,0.069,0.001,0.101-0.012l0.139-0.064
				c0.069-0.041,0.128-0.111,0.142-0.176c0.01-0.048,0.004-0.063,0-0.096c-0.004-0.045-0.058-0.12-0.084-0.09
				C377.515,105.395,377.358,105.461,377.358,105.461z"/>
		</g>
		<g>
			<linearGradient id="SVGID_2_" gradientUnits="userSpaceOnUse" x1="16.23" y1="217.4746" x2="400.6045" y2="217.4746">
				<stop  offset="0.0169" style="stop-color:#52835F"/>
				<stop  offset="0.5" style="stop-color:#006D4F"/>
				<stop  offset="1" style="stop-color:#004A33"/>
			</linearGradient>
			<path fill="url(#SVGID_2_)" d="M17.23,299.691c1.042,1.976,2.736,3.52,4.611,4.678c1.891,1.152,3.969,1.973,6.105,2.536
				c2.138,0.559,4.338,0.886,6.542,0.941c1.111,0.028,2.188-0.006,3.296-0.15c1.113-0.088,2.194-0.285,3.273-0.481
				c4.318-0.879,8.471-2.507,12.32-4.651c3.872-2.114,7.47-4.704,10.876-7.511c3.416-2.802,6.604-5.874,9.69-9.041
				c3.082-3.174,6.02-6.488,8.904-9.852c2.881-3.367,5.69-6.799,8.513-10.231c1.413-1.714,2.82-3.438,4.273-5.128
				c1.472-1.691,2.863-3.354,4.29-5.079c5.713-6.811,11.488-13.589,17.528-20.14c3.022-3.274,6.108-6.495,9.321-9.602
				c3.224-3.096,6.537-6.119,10.242-8.749c1.872-1.286,3.809-2.541,6.177-3.239c1.162-0.313,2.616-0.511,3.993,0.225
				c1.37,0.789,1.94,2.099,2.322,3.249c0.704,2.366,0.697,4.675,0.636,6.944c-0.089,2.271-0.333,4.51-0.642,6.73
				c-0.624,4.442-1.502,8.818-2.418,13.174l-1.388,6.516c-0.444,2.16-0.917,4.347-1.165,6.455l-1.8-0.698
				c4.176-5.712,7.876-11.784,11.479-17.927c3.611-6.14,7.136-12.359,10.995-18.4c1.936-3.017,3.927-6.005,6.076-8.89
				c2.043-2.827,4.01-5.899,6.344-8.683c1.17-1.396,2.408-2.759,3.898-3.949c0.75-0.587,1.569-1.138,2.557-1.518
				c0.498-0.18,1.04-0.322,1.631-0.332c0.293-0.011,0.597,0.02,0.894,0.081c0.099,0.024,0.093,0.017,0.278,0.069l0.158,0.055
				c0.112,0.04,0.19,0.056,0.36,0.138c1.187,0.513,1.869,1.46,2.337,2.372c0.456,0.926,0.707,1.857,0.912,2.77
				c0.395,1.82,0.563,3.611,0.926,5.265c0.184,0.809,0.421,1.615,0.785,2.146l0.771,1.033c0.272,0.302,0.525,0.615,0.808,0.912
				c1.154,1.193,2.503,2.169,4.016,2.726c3.044,1.149,6.542,0.487,9.631-0.916c3.127-1.402,6.002-3.448,8.688-5.693
				c2.686-2.258,5.198-4.744,7.582-7.352c4.77-5.218,9.066-10.887,13.037-16.758c1.978-2.943,3.871-5.943,5.645-9.008
				c1.754-3.062,3.473-6.196,4.735-9.402c0.202-0.515,0.784-0.768,1.298-0.565c0.457,0.18,0.707,0.659,0.616,1.123
				c-0.387,2.001-0.598,4.156-0.821,6.267l-0.591,6.387l-1.086,12.807c-0.728,8.542-1.508,17.085-2.438,25.616
				c-0.934,8.53-2.005,17.051-3.367,25.536c-1.375,8.48-2.991,16.942-5.349,25.253c-1.192,4.149-2.57,8.267-4.424,12.228
				c-0.938,1.974-1.997,3.911-3.315,5.717c-1.321,1.787-2.912,3.507-5.044,4.606c-1.058,0.543-2.253,0.897-3.468,0.963
				c-1.217,0.073-2.429-0.125-3.54-0.512c-1.114-0.383-2.148-0.914-3.089-1.553c-1.005-0.688-1.84-1.497-2.564-2.43
				c-1.434-1.868-2.235-4.089-2.659-6.292c-0.421-2.214-0.488-4.445-0.374-6.642c0.245-4.399,1.177-8.679,2.414-12.839
				c0.625-2.08,1.337-4.132,2.148-6.151l0.631-1.509c0.215-0.503,0.46-1.02,0.683-1.488c0.45-0.968,0.917-1.937,1.424-2.908
				c3.948-7.733,8.99-14.83,14.626-21.364c5.639-6.54,11.87-12.524,18.36-18.168c6.492-5.647,13.255-10.952,20.061-16.17
				c6.87-5.34,14.665-9.304,22.61-12.617c3.985-1.648,8.029-3.135,12.103-4.519c4.071-1.392,8.171-2.687,12.296-3.88
				c8.25-2.395,16.574-4.465,24.857-6.644c8.285-2.172,16.554-4.393,24.667-7.09c4.046-1.369,8.066-2.832,11.964-4.573
				c3.897-1.731,7.706-3.699,11.203-6.138c3.497-2.418,6.699-5.357,8.985-8.967c2.311-3.588,3.509-7.857,3.518-12.145
				c0.079,4.284-1.035,8.606-3.298,12.28c-2.237,3.695-5.421,6.737-8.905,9.252c-3.486,2.536-7.29,4.599-11.182,6.423
				c-3.893,1.833-7.907,3.386-11.948,4.844c-8.099,2.876-16.349,5.27-24.596,7.609c-8.253,2.326-16.503,4.63-24.694,7.082
				c-8.194,2.432-16.335,5.046-24.203,8.311c-7.85,3.275-15.473,7.158-22.16,12.357c-6.794,5.209-13.525,10.488-19.965,16.092
				c-6.439,5.6-12.602,11.521-18.158,17.966c-5.552,6.434-10.506,13.416-14.355,20.958c-0.485,0.928-0.949,1.888-1.402,2.863
				c-0.237,0.498-0.452,0.949-0.658,1.432l-0.609,1.456c-0.786,1.957-1.48,3.957-2.088,5.98c-1.205,4.045-2.103,8.202-2.333,12.368
				c-0.109,2.078-0.04,4.162,0.341,6.161c0.382,1.991,1.094,3.906,2.281,5.45c0.587,0.762,1.313,1.453,2.078,1.977
				c0.829,0.565,1.722,1.017,2.633,1.33c1.825,0.657,3.765,0.542,5.456-0.339c1.702-0.87,3.131-2.364,4.339-4.008
				c1.21-1.656,2.22-3.495,3.119-5.389c1.782-3.805,3.139-7.841,4.31-11.923c2.323-8.184,3.93-16.59,5.297-25.021
				c1.354-8.438,2.422-16.93,3.354-25.437c0.928-8.507,1.707-17.034,2.434-25.568l1.086-12.811l0.594-6.414
				c0.229-2.147,0.427-4.266,0.853-6.474l1.914,0.559c-1.355,3.435-3.088,6.571-4.874,9.696c-1.8,3.109-3.715,6.145-5.717,9.123
				c-4.019,5.941-8.363,11.676-13.221,16.992c-2.428,2.656-4.996,5.2-7.772,7.533c-2.779,2.319-5.769,4.463-9.16,5.988
				c-1.693,0.754-3.497,1.349-5.402,1.571c-1.895,0.249-3.895,0.069-5.735-0.607c-1.842-0.677-3.451-1.854-4.768-3.219
				c-0.332-0.348-0.642-0.729-0.961-1.093l-0.827-1.112c-0.632-0.962-0.86-1.917-1.082-2.835c-0.397-1.834-0.562-3.605-0.927-5.271
				c-0.183-0.826-0.411-1.626-0.747-2.303c-0.323-0.664-0.814-1.211-1.29-1.409c-1.125-0.592-2.597,0.203-3.898,1.22
				c-1.302,1.037-2.484,2.323-3.6,3.658c-2.255,2.689-4.143,5.641-6.274,8.594c-2.114,2.837-4.08,5.789-5.997,8.774
				c-3.822,5.984-7.336,12.181-10.957,18.338c-3.613,6.159-7.345,12.289-11.593,18.1l-0.005,0.007
				c-0.325,0.444-0.949,0.542-1.393,0.217c-0.3-0.22-0.442-0.577-0.402-0.922c0.273-2.306,0.75-4.467,1.197-6.655l1.389-6.518
				c0.913-4.338,1.782-8.679,2.394-13.036c0.303-2.178,0.54-4.36,0.625-6.529c0.069-2.151,0.034-4.361-0.544-6.269
				c-0.145-0.466-0.339-0.919-0.564-1.272c-0.064-0.084-0.07-0.131-0.177-0.254l-0.131-0.161l-0.033-0.041
				c0.051,0.061,0,0.003,0.005,0.01l-0.049-0.05c-0.132-0.133-0.272-0.245-0.429-0.33c-0.614-0.35-1.554-0.314-2.5-0.048
				c-1.912,0.554-3.79,1.72-5.558,2.948c-3.546,2.514-6.822,5.495-10.001,8.549c-3.174,3.069-6.237,6.267-9.241,9.52
				c-6.006,6.513-11.764,13.259-17.429,20.095c-1.413,1.691-2.881,3.427-4.335,5.079l-4.339,5.041
				c-2.89,3.372-5.778,6.757-8.742,10.081c-2.968,3.32-5.993,6.597-9.166,9.733c-3.177,3.131-6.459,6.167-9.973,8.932
				c-3.504,2.769-7.202,5.318-11.175,7.384c-3.95,2.096-8.201,3.665-12.608,4.468c-1.111,0.179-2.22,0.355-3.325,0.42
				c-1.098,0.121-2.248,0.138-3.356,0.084c-2.236-0.102-4.452-0.479-6.599-1.087c-2.144-0.612-4.224-1.483-6.105-2.683
				C19.903,303.278,18.231,301.688,17.23,299.691z"/>
		</g>
		<path fill="#603913" d="M187.001,253.631c0,2.248-1.816,4.07-4.061,4.07c-2.25,0-4.066-1.822-4.066-4.07
			c0-2.252,1.816-4.08,4.066-4.08C185.185,249.551,187.001,251.379,187.001,253.631z"/>
		<path fill="#603913" d="M257.987,130.76c0,2.25-1.816,4.07-4.061,4.07c-2.25,0-4.066-1.82-4.066-4.07
			c0-2.252,1.816-4.08,4.066-4.08C256.171,126.68,257.987,128.508,257.987,130.76z"/>
	</g>
	<circle fill="none" stroke="#3C2415" stroke-linecap="round" stroke-miterlimit="10" cx="203.326" cy="201.803" r="129.854"/>
</g>
<path fill="none" stroke="#000000" stroke-miterlimit="10" d="M36.833-149.041c0-58.542,47.458-106,106-106s106,47.458,106,106"/>
</svg>
